<svg id="Layer_1" data-name="Layer 1" xmlns="http://www.w3.org/2000/svg" viewBox="0 0 64 64">
  <defs>
    <style>
      .cls-1 {
        fill: #721481;
      }

      .cls-2 {
        fill: #7e1b96;
      }

      .cls-3 {
        fill: #fff;
      }
    </style>
  </defs>
  <title>logo_Fsharp</title>
  <g>
    <circle class="cls-1" cx="32" cy="32" r="31" transform="translate(-13.25 32) rotate(-45)"/>
    <path class="cls-2" d="M53.92,10.08a31,31,0,0,1,0,43.84L10.08,10.08A31,31,0,0,1,53.92,10.08Z"/>
  </g>
  <g>
    <path class="cls-3" d="M17.23,20.37V30.92H27.46v2.36H17.23V46h-2.6V18H28.29v2.38Z"/>
    <path class="cls-3" d="M51.29,27.72h-5.2L44.73,34h5.53l-.43,1.8H44.38l-1.7,7.77h-2l1.68-7.77H37.29L35.63,43.6h-2l1.66-7.77H30l.37-1.8h5.33L37,27.72H31.43l.39-1.8h5.55L39,18h2l-1.68,7.93h5.08L46.15,18h2l-1.7,7.93H51.7ZM39,27.72,37.64,34h5.1l1.37-6.31Z"/>
  </g>
</svg>
