<svg id="Icons" xmlns="http://www.w3.org/2000/svg" viewBox="0 0 64 64">
  <defs>
    <style>
      .cls-1 {
        fill: #007acc;
      }

      .cls-2 {
        fill: #fff;
      }
    </style>
  </defs>
  <title>logo_TS</title>
  <g>
    <rect class="cls-1" x="1" y="1" width="62" height="62"/>
    <path class="cls-2" d="M51,36.77,55.2,34a8.08,8.08,0,0,0-7.51-4.62c-5.63,0-8.42,3.55-8.42,8.17s4.39,7.11,7.33,8.36c3.15,1.33,4.73,2.47,4.73,4.37,0,1.39-1.15,2.77-3.63,2.85-3.94.13-5.63-3.61-5.63-3.61l-4.42,3s2.42,5.76,10.18,5.76,9.09-5.44,9.09-8-.91-6.14-6.42-8.61S44.66,38,44.66,36.7s1.15-2.34,3-2.34S51,36.7,51,36.7"/>
  </g>
  <path class="cls-2" d="M37,36H29.21V59h-6V36H15V31H37Z"/>
</svg>
